<svg id="Layer_1" data-name="Layer 1" xmlns="http://www.w3.org/2000/svg" viewBox="0 0 1921 1513"><defs><style>.cls-1{fill:#27faff;}</style></defs><path class="cls-1" d="M600.5,1565.5c-256.51,0-497.66-30-679-84.33-88.16-26.44-157.37-57.21-205.7-91.48-49.95-35.4-75.27-73-75.27-111.69s25.32-76.29,75.27-111.69c48.33-34.27,117.54-65,205.7-91.48,181.37-54.38,422.52-84.33,679-84.33s497.66,30,679,84.33c88.16,26.44,157.37,57.21,205.7,91.48,50,35.4,75.27,73,75.27,111.69s-25.32,76.29-75.27,111.69c-48.33,34.27-117.54,65-205.7,91.48C1098.16,1535.55,857,1565.5,600.5,1565.5Z" transform="translate(360 -53)"/><path d="M600.5,991c129.62,0,255.37,7.61,373.74,22.62,114.33,14.5,217,35.26,305.15,61.69s157.26,57.17,205.55,91.4c24.42,17.32,43.17,35.42,55.72,53.81,12.83,18.81,19.34,38.14,19.34,57.48s-6.51,38.67-19.34,57.48c-12.55,18.39-31.3,36.49-55.72,53.81-48.29,34.23-117.44,65-205.55,91.4s-190.82,47.19-305.15,61.69c-118.37,15-244.12,22.62-373.74,22.62s-255.37-7.61-373.74-22.62c-114.33-14.5-217-35.26-305.15-61.69s-157.26-57.17-205.55-91.4c-24.42-17.32-43.17-35.42-55.72-53.81C-352.49,1316.67-359,1297.34-359,1278s6.51-38.67,19.34-57.48c12.55-18.39,31.3-36.49,55.72-53.81,48.29-34.23,117.44-65,205.55-91.4s190.82-47.19,305.15-61.69C345.13,998.61,470.88,991,600.5,991m0-1C70,990-360,1118.94-360,1278s430,288,960.5,288S1561,1437.06,1561,1278,1131,990,600.5,990Z" transform="translate(360 -53)"/><path class="cls-1" d="M599.5,1039.5A493.14,493.14,0,0,1,407.6,92.24a493.13,493.13,0,0,1,383.8,908.52A490.07,490.07,0,0,1,599.5,1039.5Z" transform="translate(360 -53)"/><path d="M599.5,54a492.63,492.63,0,0,1,191.7,946.3A492.63,492.63,0,0,1,407.8,92.7,489.39,489.39,0,0,1,599.5,54m0-1C327,53,106,274,106,546.5S327,1040,599.5,1040s493.5-221,493.5-493.5S872.05,53,599.5,53Z" transform="translate(360 -53)"/></svg>