<svg id="Layer_1" data-name="Layer 1" xmlns="http://www.w3.org/2000/svg" viewBox="0 0 1200 1200"><defs><style>.cls-1,.cls-3{fill:#d11e27;}.cls-2,.cls-4{fill:none;}.cls-3,.cls-4{stroke:#000;stroke-miterlimit:10;}</style></defs><path class="cls-1" d="M200.74,528.24A443.61,443.61,0,0,1,192.5,443a436,436,0,0,1,31.95-164.85,423.4,423.4,0,0,1,87.12-134.62A404.6,404.6,0,0,1,440.78,52.78a392.75,392.75,0,0,1,316.44,0,404.6,404.6,0,0,1,129.21,90.75,423.4,423.4,0,0,1,87.12,134.62,436,436,0,0,1,32,164.85,444.65,444.65,0,0,1-6,72.74,401,401,0,0,0-798.78,12.5Z"/><path d="M599,20A389.41,389.41,0,0,1,757,53.24a404.1,404.1,0,0,1,129.05,90.64,422.93,422.93,0,0,1,87,134.46A435.65,435.65,0,0,1,1005,443a444.9,444.9,0,0,1-5.38,69,401.53,401.53,0,0,0-799.09,12.48A443.34,443.34,0,0,1,193,443a435.65,435.65,0,0,1,31.91-164.66,422.93,422.93,0,0,1,87-134.46A404.1,404.1,0,0,1,441,53.24,389.41,389.41,0,0,1,599,20m0-1C374.22,19,192,208.83,192,443a442.49,442.49,0,0,0,9,89C214.2,322.75,388.1,157.12,600.69,157.12c208.33,0,379.5,159.06,398.7,362.36A443.53,443.53,0,0,0,1006,443c0-234.17-182.22-424-407-424Z"/><path class="cls-1" d="M996.28,610.12a406.26,406.26,0,0,0,3.41-52.5,401,401,0,1,0-802,0c0,13.3.66,26.65,1.95,39.74a339.31,339.31,0,0,1,12-264.2c21.25-44.77,51.67-85,90.42-119.51s83.88-61.65,134.13-80.6a471.37,471.37,0,0,1,328.54,0C815,152,860.11,179.11,898.87,213.65S968,288.39,989.29,333.16a339.39,339.39,0,0,1,7,277Z"/><path d="M600.46,104a463.57,463.57,0,0,1,164.1,29.52c50.19,18.92,95.27,46,134,80.5s69.09,74.64,90.31,119.36a338.89,338.89,0,0,1,8.41,273.06,407.36,407.36,0,0,0,2.94-48.82,401.5,401.5,0,1,0-803,0c0,12,.53,24,1.59,35.91a338.79,338.79,0,0,1,13.31-260.15C233.31,288.66,263.7,248.51,302.4,214s83.78-61.58,134-80.5A463.48,463.48,0,0,1,600.46,104m0-1C367.14,103,178,271.56,178,479.5a339,339,0,0,0,22.55,121.66,401.44,401.44,0,0,1-2.35-43.54c0-221.19,179.31-400.5,400.5-400.5s400.5,179.31,400.5,400.5a403.21,403.21,0,0,1-3.91,56.16,339.76,339.76,0,0,0,27.66-134.28c0-207.94-189.15-376.5-422.48-376.5Z"/><ellipse class="cls-2" cx="599.5" cy="1151.27" rx="779.5" ry="233.73"/><path class="cls-2" d="M999.19,557.62a403.21,403.21,0,0,1-3.91,56.16C968,808.38,800.82,958.12,598.69,958.12c-206.48,0-376.46-156.25-398.15-357a401.44,401.44,0,0,1-2.35-43.54c0-221.19,179.31-400.5,400.5-400.5S999.19,336.43,999.19,557.62Z"/><path class="cls-3" d="M300.29,214.57C333.5,158.5,380.5,151.5,413.5,112.5s74.59-78,97.3-83.51"/><path class="cls-3" d="M250.87,268.05C281.5,201.5,301.5,170.5,341.5,141.5s59.78-71.18,83.89-82.09"/><path class="cls-3" d="M414.67,141.28c71.83-45.78,53.93-54,81.38-81.87S521.7,24.58,542.6,23"/><path class="cls-3" d="M510.8,111.5c38.7-62,49.08-57,65.89-92.5"/><path class="cls-3" d="M576.69,103C598.5,48.5,600.5,39.5,599,19"/><path class="cls-3" d="M635.66,104.3c-16.16-50.8-19.92-57.87-17.54-84.83"/><path class="cls-3" d="M701.58,113.86C674.5,79.5,659.5,83.5,650.5,52.5l-9-31"/><path class="cls-3" d="M775,136.53c-66.49-63-64.54-35-79.51-75.53s-23.94-35.28-23.94-35.28"/><path class="cls-3" d="M847.74,174.2C784.5,114.5,750.54,105.53,738.52,81s-18.85-38.34-36.94-48.42"/><path class="cls-3" d="M913.3,226.46c-36.8-77-33.8-74-82.8-98s-75-69-88-78a123.43,123.43,0,0,0-26.2-13.62"/><path class="cls-4" d="M957.75,278.51c-24.25-77-77.78-137.93-110-159s-65.08-35.22-78.16-60.13"/></svg>