<svg id="Layer_1" data-name="Layer 1" xmlns="http://www.w3.org/2000/svg" viewBox="0 0 1200 1200"><defs><style>.cls-1{fill:#205fce;}.cls-2{fill:none;}</style></defs><path class="cls-1" d="M925.15,324.84a400.93,400.93,0,0,0-652.49-1.11A226.93,226.93,0,0,1,269.5,286c0-72.5,34.26-140.67,96.47-191.95S511,14.5,599,14.5,769.79,42.75,832,94.05,928.5,213.5,928.5,286A227.52,227.52,0,0,1,925.15,324.84Z"/><path d="M599,15A388.07,388.07,0,0,1,727.12,36.32C766.3,50,801.49,69.53,831.71,94.44s53.91,53.87,70.47,86.14a227.66,227.66,0,0,1,22.68,143,405,405,0,0,0-139-121.27A401.44,401.44,0,0,0,411.76,202,404.87,404.87,0,0,0,273,322.46,225.85,225.85,0,0,1,270,286a229,229,0,0,1,25.82-105.42c16.56-32.27,40.27-61.25,70.47-86.14S431.7,50,470.88,36.32A388.07,388.07,0,0,1,599,15m0-1C416.75,14,269,135.78,269,286a226.74,226.74,0,0,0,3.37,39C345,223.3,464,157,598.5,157c135,0,254.38,66.78,326.93,169.1A226.62,226.62,0,0,0,929,286C929,135.78,781.25,14,599,14Z"/><ellipse class="cls-2" cx="599.5" cy="1151.27" rx="779.5" ry="233.73"/><circle class="cls-2" cx="598.69" cy="557.62" r="400.5"/><path d="M257,386.53c8-65.68,46.61-126.5,109-171.46,63.56-45.79,146.23-71,232.78-71,85.62,0,167.64,24.75,230.94,69.7,62.08,44.07,101.18,103.89,110.33,168.66C871.84,271,741.69,201.91,599.77,201.91c-72.2,0-142.66,17.89-203.75,51.72C337.33,286.13,289.31,332.05,257,386.53Z"/><path d="M598.81,144.56c85.52,0,167.44,24.72,230.65,69.6,61.2,43.46,100,102.22,109.77,165.93C906.53,327.56,859,283.33,801.57,252c-60.64-33.08-130.42-50.57-201.8-50.57-72.29,0-142.83,17.91-204,51.78-58,32.14-105.64,77.38-138,131,8.59-64.64,47-124.41,108.53-168.75,63.48-45.73,146-70.91,232.49-70.91m0-1c-179.87,0-327.46,107.85-342.58,245.26C320.89,278,450.47,202.41,599.77,202.41c147.46,0,275.68,73.77,341.13,182.31-17.58-135.45-164-241.16-342.09-241.16Z"/><path class="cls-1" d="M258.1,381c8-65.69,46.61-126.5,109-171.46,63.56-45.79,146.23-71,232.78-71,85.63,0,167.64,24.75,230.94,69.69C892.93,252.27,932,312.09,941.18,376.86,873,265.46,742.79,196.35,600.87,196.35c-72.2,0-142.66,17.89-203.75,51.72C338.43,280.57,290.41,326.49,258.1,381Z"/><path d="M599.91,139c85.52,0,167.44,24.72,230.65,69.6,61.2,43.45,100,102.22,109.78,165.93C907.63,322,860.13,277.77,802.67,246.42c-60.64-33.08-130.42-50.57-201.8-50.57-72.28,0-142.83,17.91-204,51.78-58,32.14-105.65,77.38-138,131,8.58-64.64,47-124.41,108.52-168.75C430.9,164.18,513.47,139,599.91,139m0-1C420,138,272.45,245.85,257.33,383.26,322,272.47,451.57,196.85,600.87,196.85c147.46,0,275.68,73.76,341.13,182.31C924.42,243.71,778,138,599.91,138Z"/></svg>