<svg id="Layer_1" data-name="Layer 1" xmlns="http://www.w3.org/2000/svg" viewBox="0 0 1200 1200"><defs><style>.cls-1{fill:none;}</style></defs><path d="M1012,526.51V527H999C983.4,320.12,810.58,157.12,599.69,157.12S216,320.12,200.35,527H189v-.49C189,300.34,373.24,117,600.5,117S1012,300.34,1012,526.51Z"/><path d="M187.5,527.5h1a406.53,406.53,0,0,0,26.9,145,397.61,397.61,0,0,0,82.84,149.53A404.89,404.89,0,0,0,433,922.45c-87.13,5.72-169.72,15.82-245.53,30Z"/><path d="M188,528a407.1,407.1,0,0,0,26.92,144.68,400.82,400.82,0,0,0,83,149.72A402.45,402.45,0,0,0,431,922.08c-86.2,5.73-167.93,15.75-243,29.81V528h0m1-1h-2V953.1c75.06-14.11,158.7-24.49,248.05-30.28A401.56,401.56,0,0,1,215.87,672.36,406.61,406.61,0,0,1,189,527Z"/><path d="M1011.5,952.13C935.85,938,853.46,928,766.56,922.36c98.34-45.07,175.29-129.19,211.3-231.06a403.88,403.88,0,0,0,33.64-135.86Z"/><path d="M1011,567.36V951.53C936.07,937.58,854.52,927.65,768.56,922A402.78,402.78,0,0,0,978.32,691.5,404.3,404.3,0,0,0,1011,567.36m1-40.36a406.2,406.2,0,0,1-34.61,164.13,401.75,401.75,0,0,1-212.85,231.6c89.08,5.72,172.52,16,247.46,30V527Z"/><path d="M211.85,659.9A405.85,405.85,0,0,1,189.5,527.5h10.31c-.74,10-1.12,20.08-1.12,30.12A402,402,0,0,0,211.85,659.9Z"/><path d="M199.27,528c-.72,9.79-1.08,19.75-1.08,29.62a402.91,402.91,0,0,0,10.08,89.79A405.66,405.66,0,0,1,190,528h9.27m1.08-1H189a406.61,406.61,0,0,0,26.87,145.36,400.55,400.55,0,0,1-16.68-114.74q0-15.45,1.16-30.62Z"/><path d="M982,678.92a400.14,400.14,0,0,0,18.68-121.3c0-10-.38-20.17-1.12-30.12h11.93A404.28,404.28,0,0,1,982,678.92Z"/><path d="M1011,528a404.06,404.06,0,0,1-24.81,138.71,401.32,401.32,0,0,0,15-109.09c0-9.87-.36-19.83-1.08-29.62H1011m1-1H999q1.15,15.16,1.16,30.62a399.56,399.56,0,0,1-22.8,133.51A406.2,406.2,0,0,0,1012,527Z"/><ellipse class="cls-1" cx="599.5" cy="1151.27" rx="779.5" ry="233.73"/><circle class="cls-1" cx="598.69" cy="557.62" r="400.5"/><path class="cls-1" d="M1380,1151.27c0,129.09-349,233.73-779.5,233.73S-179,1280.36-179,1151.27c0-83.54,146.17-156.84,366-198.17,75.06-14.11,158.7-24.49,248.05-30.28q25.33-1.65,51.26-2.79c37.27-1.64,75.4-2.49,114.19-2.49s76.92.85,114.19,2.49q25.2,1.11,49.85,2.7c89.08,5.72,172.52,16,247.46,30C1233,994,1380,1067.48,1380,1151.27Z"/><path class="cls-1" d="M1000.19,557.62a400.5,400.5,0,1,1-801,0q0-15.45,1.16-30.62C216,320.12,388.8,157.12,599.69,157.12S983.4,320.12,999,527Q1000.19,542.17,1000.19,557.62Z"/></svg>