<svg id="Layer_1" data-name="Layer 1" xmlns="http://www.w3.org/2000/svg" viewBox="0 0 1200 1200"><defs><style>.cls-1{fill:none;}</style></defs><path d="M999.46,551.76a401,401,0,0,0-801.61-11.07,342.81,342.81,0,0,1,23.9-220.36c20.67-44.42,50.27-84.31,88-118.56a413.73,413.73,0,0,1,130.49-80,450.13,450.13,0,0,1,319.6,0,413.73,413.73,0,0,1,130.49,80c37.69,34.25,67.29,74.14,88,118.56a342.73,342.73,0,0,1,21.21,231.43Z"/><path d="M600,93a443.13,443.13,0,0,1,159.62,29.28A413.11,413.11,0,0,1,890,202.14c37.65,34.21,67.2,74,87.85,118.4A342.37,342.37,0,0,1,999.9,548,401.62,401.62,0,0,0,232.25,392.75a398.17,398.17,0,0,0-34.73,144.12A342.41,342.41,0,0,1,222.2,320.54c20.65-44.36,50.2-84.19,87.85-118.4a413.11,413.11,0,0,1,130.33-79.86A443.13,443.13,0,0,1,600,93m0-1C373,92,189,259.22,189,465.5a342.2,342.2,0,0,0,9.21,79C205.09,329.31,381.67,157,598.51,157,819,157,997.9,335.2,999,555.45a342,342,0,0,0,12-90C1011,259.22,827,92,600,92Z"/><ellipse class="cls-1" cx="599.5" cy="1151.27" rx="779.5" ry="233.73"/><circle class="cls-1" cx="598.69" cy="557.62" r="400.5"/></svg>