<svg id="Layer_1" data-name="Layer 1" xmlns="http://www.w3.org/2000/svg" viewBox="0 0 1200 1200"><defs><style>.cls-1{fill:none;}</style></defs><ellipse class="cls-1" cx="599.5" cy="1151.27" rx="779.5" ry="233.73"/><circle class="cls-1" cx="598.69" cy="557.62" r="400.5"/><path d="M598.5,815.5A280.79,280.79,0,0,1,361.78,686C385.49,716,466.3,804,598.5,804s213-88,236.72-118A280.79,280.79,0,0,1,598.5,815.5Z"/><path d="M829.33,693.92a280.49,280.49,0,0,1-461.66,0,335.36,335.36,0,0,0,54.89,51.13,308.73,308.73,0,0,0,74.88,41.12,287.76,287.76,0,0,0,202.12,0,308.73,308.73,0,0,0,74.88-41.12,335.36,335.36,0,0,0,54.89-51.13m12-16.92c-7.45,10.65-91.55,126.5-242.82,126.5S363.13,687.65,355.68,677a281.59,281.59,0,0,0,485.64,0Z"/></svg>