<svg id="Layer_1" data-name="Layer 1" xmlns="http://www.w3.org/2000/svg" viewBox="0 0 1200 1200"><defs><style>.cls-1{fill:none;}</style></defs><ellipse class="cls-1" cx="599.5" cy="1151.27" rx="779.5" ry="233.73"/><circle class="cls-1" cx="598.69" cy="557.62" r="400.5"/><path d="M835.22,807C811.51,777,730.69,689,598.5,689s-213,88-236.72,118a281,281,0,0,1,473.44,0Z"/><path d="M598.5,678A280.24,280.24,0,0,1,829.33,799.08,335.36,335.36,0,0,0,774.44,748a308.73,308.73,0,0,0-74.88-41.12,287.76,287.76,0,0,0-202.12,0A308.73,308.73,0,0,0,422.56,748a335.36,335.36,0,0,0-54.89,51.13A280.24,280.24,0,0,1,598.5,678m0-1A281.38,281.38,0,0,0,355.68,816c7.45-10.65,91.55-126.5,242.82-126.5S833.87,805.35,841.32,816A281.38,281.38,0,0,0,598.5,677Z"/></svg>